<mxfile host="app.diagrams.net" modified="2024-01-12T10:33:07.841Z" agent="Mozilla/5.0 (Windows NT 10.0; Win64; x64; rv:121.0) Gecko/20100101 Firefox/121.0" etag="gVz7H1QWkvcECyzzT0VX" version="22.1.17" type="device">
  <diagram id="C5RBs43oDa-KdzZeNtuy" name="Page-1">
    <mxGraphModel dx="1434" dy="782" grid="1" gridSize="10" guides="1" tooltips="1" connect="1" arrows="1" fold="1" page="1" pageScale="1" pageWidth="827" pageHeight="1169" math="0" shadow="0">
      <root>
        <mxCell id="WIyWlLk6GJQsqaUBKTNV-0" />
        <mxCell id="WIyWlLk6GJQsqaUBKTNV-1" parent="WIyWlLk6GJQsqaUBKTNV-0" />
        <mxCell id="WIyWlLk6GJQsqaUBKTNV-2" value="" style="rounded=0;html=1;jettySize=auto;orthogonalLoop=1;fontSize=11;endArrow=block;endFill=0;endSize=8;strokeWidth=1;shadow=0;labelBackgroundColor=none;edgeStyle=orthogonalEdgeStyle;" parent="WIyWlLk6GJQsqaUBKTNV-1" source="WIyWlLk6GJQsqaUBKTNV-3" edge="1">
          <mxGeometry relative="1" as="geometry">
            <mxPoint x="220" y="170" as="targetPoint" />
          </mxGeometry>
        </mxCell>
        <mxCell id="WIyWlLk6GJQsqaUBKTNV-3" value="&lt;div style=&quot;font-size: 27px;&quot;&gt;&lt;font face=&quot;Courier New&quot;&gt;Start&lt;/font&gt;&lt;/div&gt;" style="rounded=1;whiteSpace=wrap;html=1;fontSize=12;glass=0;strokeWidth=1;shadow=0;arcSize=50;" parent="WIyWlLk6GJQsqaUBKTNV-1" vertex="1">
          <mxGeometry x="160" y="80" width="120" height="40" as="geometry" />
        </mxCell>
        <mxCell id="LNvxk5o09146r4D4Vn2T-28" style="edgeStyle=orthogonalEdgeStyle;rounded=0;orthogonalLoop=1;jettySize=auto;html=1;exitX=0.5;exitY=1;exitDx=0;exitDy=0;entryX=0.5;entryY=0;entryDx=0;entryDy=0;" edge="1" parent="WIyWlLk6GJQsqaUBKTNV-1" source="LNvxk5o09146r4D4Vn2T-2" target="LNvxk5o09146r4D4Vn2T-4">
          <mxGeometry relative="1" as="geometry" />
        </mxCell>
        <mxCell id="LNvxk5o09146r4D4Vn2T-2" value="&lt;div style=&quot;font-size: 18px;&quot;&gt;&lt;font face=&quot;Courier New&quot; style=&quot;font-size: 18px;&quot;&gt;Input&lt;/font&gt;&lt;/div&gt;&lt;div style=&quot;font-size: 18px;&quot;&gt;&lt;font face=&quot;Courier New&quot; style=&quot;font-size: 18px;&quot;&gt;Get wasd controls&lt;/font&gt;&lt;font face=&quot;aqZTh40EGj9IS2XHON0B&quot; style=&quot;font-size: 18px;&quot;&gt;&lt;font style=&quot;font-size: 18px;&quot;&gt;&lt;br&gt;&lt;/font&gt;&lt;/font&gt;&lt;/div&gt;" style="shape=parallelogram;perimeter=parallelogramPerimeter;whiteSpace=wrap;html=1;fixedSize=1;" vertex="1" parent="WIyWlLk6GJQsqaUBKTNV-1">
          <mxGeometry x="160" y="160" width="120" height="80" as="geometry" />
        </mxCell>
        <mxCell id="LNvxk5o09146r4D4Vn2T-29" value="" style="edgeStyle=orthogonalEdgeStyle;rounded=0;orthogonalLoop=1;jettySize=auto;html=1;" edge="1" parent="WIyWlLk6GJQsqaUBKTNV-1" source="LNvxk5o09146r4D4Vn2T-4" target="LNvxk5o09146r4D4Vn2T-5">
          <mxGeometry relative="1" as="geometry" />
        </mxCell>
        <mxCell id="LNvxk5o09146r4D4Vn2T-4" value="&lt;font style=&quot;font-size: 19px;&quot; face=&quot;Courier New&quot;&gt;Move Player&lt;br&gt;&lt;/font&gt;" style="rounded=0;whiteSpace=wrap;html=1;" vertex="1" parent="WIyWlLk6GJQsqaUBKTNV-1">
          <mxGeometry x="160" y="280" width="120" height="80" as="geometry" />
        </mxCell>
        <mxCell id="LNvxk5o09146r4D4Vn2T-7" value="&lt;div&gt;Yes&lt;br&gt;&lt;/div&gt;" style="edgeStyle=orthogonalEdgeStyle;rounded=0;orthogonalLoop=1;jettySize=auto;html=1;exitX=0.5;exitY=0;exitDx=0;exitDy=0;" edge="1" parent="WIyWlLk6GJQsqaUBKTNV-1" source="LNvxk5o09146r4D4Vn2T-5">
          <mxGeometry x="-0.0062" relative="1" as="geometry">
            <mxPoint x="360" y="460" as="targetPoint" />
            <mxPoint as="offset" />
          </mxGeometry>
        </mxCell>
        <mxCell id="LNvxk5o09146r4D4Vn2T-5" value="&lt;font face=&quot;Courier New&quot;&gt;Is player colliding?&lt;br&gt;&lt;/font&gt;" style="rhombus;whiteSpace=wrap;html=1;direction=south;" vertex="1" parent="WIyWlLk6GJQsqaUBKTNV-1">
          <mxGeometry x="160" y="400" width="120" height="120" as="geometry" />
        </mxCell>
        <mxCell id="LNvxk5o09146r4D4Vn2T-16" value="No" style="edgeStyle=orthogonalEdgeStyle;rounded=0;orthogonalLoop=1;jettySize=auto;html=1;exitX=0.5;exitY=0;exitDx=0;exitDy=0;" edge="1" parent="WIyWlLk6GJQsqaUBKTNV-1" source="LNvxk5o09146r4D4Vn2T-8">
          <mxGeometry x="-0.0125" relative="1" as="geometry">
            <mxPoint x="420" y="360" as="targetPoint" />
            <mxPoint as="offset" />
          </mxGeometry>
        </mxCell>
        <mxCell id="LNvxk5o09146r4D4Vn2T-20" value="Yes" style="edgeStyle=orthogonalEdgeStyle;rounded=0;orthogonalLoop=1;jettySize=auto;html=1;exitX=0.5;exitY=1;exitDx=0;exitDy=0;entryX=0.5;entryY=0;entryDx=0;entryDy=0;" edge="1" parent="WIyWlLk6GJQsqaUBKTNV-1" source="LNvxk5o09146r4D4Vn2T-8" target="LNvxk5o09146r4D4Vn2T-19">
          <mxGeometry relative="1" as="geometry">
            <mxPoint as="offset" />
          </mxGeometry>
        </mxCell>
        <mxCell id="LNvxk5o09146r4D4Vn2T-8" value="&lt;div style=&quot;font-size: 14px;&quot;&gt;&lt;font style=&quot;font-size: 14px;&quot; face=&quot;Courier New&quot;&gt;Can&lt;/font&gt;&lt;/div&gt;&lt;div style=&quot;font-size: 14px;&quot;&gt;&lt;font style=&quot;font-size: 14px;&quot; face=&quot;Courier New&quot;&gt;the player&lt;/font&gt;&lt;/div&gt;&lt;div style=&quot;font-size: 14px;&quot;&gt;&lt;font style=&quot;font-size: 14px;&quot; face=&quot;Courier New&quot;&gt;move onto&lt;/font&gt;&lt;/div&gt;&lt;div style=&quot;font-size: 14px;&quot;&gt;&lt;font style=&quot;font-size: 14px;&quot; face=&quot;Courier New&quot;&gt;it?&lt;/font&gt;&lt;/div&gt;" style="rhombus;whiteSpace=wrap;html=1;" vertex="1" parent="WIyWlLk6GJQsqaUBKTNV-1">
          <mxGeometry x="360" y="400" width="120" height="120" as="geometry" />
        </mxCell>
        <mxCell id="LNvxk5o09146r4D4Vn2T-14" value="No" style="endArrow=classic;html=1;rounded=0;entryX=0;entryY=0.5;entryDx=0;entryDy=0;exitX=0.5;exitY=1;exitDx=0;exitDy=0;" edge="1" parent="WIyWlLk6GJQsqaUBKTNV-1" source="LNvxk5o09146r4D4Vn2T-5" target="LNvxk5o09146r4D4Vn2T-2">
          <mxGeometry x="-0.814" width="50" height="50" relative="1" as="geometry">
            <mxPoint x="80" y="460" as="sourcePoint" />
            <mxPoint x="80" y="200" as="targetPoint" />
            <Array as="points">
              <mxPoint x="80" y="460" />
              <mxPoint x="80" y="200" />
            </Array>
            <mxPoint as="offset" />
          </mxGeometry>
        </mxCell>
        <mxCell id="LNvxk5o09146r4D4Vn2T-18" style="edgeStyle=orthogonalEdgeStyle;rounded=0;orthogonalLoop=1;jettySize=auto;html=1;exitX=0.5;exitY=0;exitDx=0;exitDy=0;entryX=1;entryY=0.5;entryDx=0;entryDy=0;" edge="1" parent="WIyWlLk6GJQsqaUBKTNV-1" source="LNvxk5o09146r4D4Vn2T-17" target="LNvxk5o09146r4D4Vn2T-2">
          <mxGeometry relative="1" as="geometry">
            <Array as="points">
              <mxPoint x="420" y="200" />
            </Array>
          </mxGeometry>
        </mxCell>
        <mxCell id="LNvxk5o09146r4D4Vn2T-17" value="&lt;font style=&quot;font-size: 18px;&quot; face=&quot;Courier New&quot;&gt;Reset player&#39;s position&lt;br&gt;&lt;/font&gt;" style="rounded=0;whiteSpace=wrap;html=1;" vertex="1" parent="WIyWlLk6GJQsqaUBKTNV-1">
          <mxGeometry x="360" y="280" width="120" height="80" as="geometry" />
        </mxCell>
        <mxCell id="LNvxk5o09146r4D4Vn2T-21" value="&lt;div&gt;No&lt;/div&gt;" style="edgeStyle=orthogonalEdgeStyle;rounded=0;orthogonalLoop=1;jettySize=auto;html=1;exitX=0;exitY=0.5;exitDx=0;exitDy=0;" edge="1" parent="WIyWlLk6GJQsqaUBKTNV-1" source="LNvxk5o09146r4D4Vn2T-19">
          <mxGeometry x="-0.3629" relative="1" as="geometry">
            <mxPoint x="80" y="460" as="targetPoint" />
            <mxPoint as="offset" />
          </mxGeometry>
        </mxCell>
        <mxCell id="LNvxk5o09146r4D4Vn2T-23" value="&lt;div&gt;Yes&lt;/div&gt;" style="edgeStyle=orthogonalEdgeStyle;rounded=0;orthogonalLoop=1;jettySize=auto;html=1;exitX=0.5;exitY=1;exitDx=0;exitDy=0;entryX=0.5;entryY=0;entryDx=0;entryDy=0;" edge="1" parent="WIyWlLk6GJQsqaUBKTNV-1" source="LNvxk5o09146r4D4Vn2T-19" target="LNvxk5o09146r4D4Vn2T-22">
          <mxGeometry relative="1" as="geometry" />
        </mxCell>
        <mxCell id="LNvxk5o09146r4D4Vn2T-19" value="&lt;font style=&quot;font-size: 16px;&quot; face=&quot;Courier New&quot;&gt;Is it special?&lt;br&gt;&lt;/font&gt;" style="rhombus;whiteSpace=wrap;html=1;" vertex="1" parent="WIyWlLk6GJQsqaUBKTNV-1">
          <mxGeometry x="360" y="560" width="120" height="120" as="geometry" />
        </mxCell>
        <mxCell id="LNvxk5o09146r4D4Vn2T-27" value="Yes" style="edgeStyle=orthogonalEdgeStyle;rounded=0;orthogonalLoop=1;jettySize=auto;html=1;exitX=0.5;exitY=1;exitDx=0;exitDy=0;" edge="1" parent="WIyWlLk6GJQsqaUBKTNV-1" source="LNvxk5o09146r4D4Vn2T-22" target="LNvxk5o09146r4D4Vn2T-26">
          <mxGeometry relative="1" as="geometry" />
        </mxCell>
        <mxCell id="LNvxk5o09146r4D4Vn2T-31" value="No" style="edgeStyle=orthogonalEdgeStyle;rounded=0;orthogonalLoop=1;jettySize=auto;html=1;exitX=0;exitY=0.5;exitDx=0;exitDy=0;entryX=1;entryY=0.5;entryDx=0;entryDy=0;" edge="1" parent="WIyWlLk6GJQsqaUBKTNV-1" source="LNvxk5o09146r4D4Vn2T-22" target="LNvxk5o09146r4D4Vn2T-30">
          <mxGeometry relative="1" as="geometry" />
        </mxCell>
        <mxCell id="LNvxk5o09146r4D4Vn2T-22" value="&lt;font style=&quot;font-size: 16px;&quot; face=&quot;Courier New&quot;&gt;Is it the end?&lt;br&gt;&lt;/font&gt;" style="rhombus;whiteSpace=wrap;html=1;" vertex="1" parent="WIyWlLk6GJQsqaUBKTNV-1">
          <mxGeometry x="360" y="720" width="120" height="120" as="geometry" />
        </mxCell>
        <mxCell id="LNvxk5o09146r4D4Vn2T-26" value="&lt;font style=&quot;font-size: 28px;&quot; face=&quot;Courier New&quot;&gt;End&lt;/font&gt;" style="rounded=1;whiteSpace=wrap;html=1;fontSize=12;glass=0;strokeWidth=1;shadow=0;arcSize=50;" vertex="1" parent="WIyWlLk6GJQsqaUBKTNV-1">
          <mxGeometry x="360" y="880" width="120" height="40" as="geometry" />
        </mxCell>
        <mxCell id="LNvxk5o09146r4D4Vn2T-32" style="edgeStyle=orthogonalEdgeStyle;rounded=0;orthogonalLoop=1;jettySize=auto;html=1;exitX=0;exitY=0.5;exitDx=0;exitDy=0;" edge="1" parent="WIyWlLk6GJQsqaUBKTNV-1" source="LNvxk5o09146r4D4Vn2T-30">
          <mxGeometry relative="1" as="geometry">
            <mxPoint x="80" y="620" as="targetPoint" />
          </mxGeometry>
        </mxCell>
        <mxCell id="LNvxk5o09146r4D4Vn2T-30" value="Do its thing" style="rounded=0;whiteSpace=wrap;html=1;" vertex="1" parent="WIyWlLk6GJQsqaUBKTNV-1">
          <mxGeometry x="160" y="740" width="120" height="80" as="geometry" />
        </mxCell>
      </root>
    </mxGraphModel>
  </diagram>
</mxfile>
